<svg width="900" height="700" viewBox="0 0 900 700" fill="none" xmlns="http://www.w3.org/2000/svg">
  <rect width="900" height="700" fill="#f4ede4"/>
  <rect x="80" y="80" width="360" height="520" rx="28" fill="#ffffff" stroke="#e4d6c7" stroke-width="2"/>
  <rect x="120" y="130" width="280" height="16" rx="8" fill="#e1d3c4"/>
  <rect x="120" y="165" width="200" height="12" rx="6" fill="#eadfd3"/>
  <rect x="120" y="195" width="240" height="12" rx="6" fill="#eadfd3"/>
  <rect x="120" y="245" width="250" height="10" rx="5" fill="#f0e7dd"/>
  <rect x="120" y="265" width="210" height="10" rx="5" fill="#f0e7dd"/>
  <rect x="120" y="285" width="260" height="10" rx="5" fill="#f0e7dd"/>
  <rect x="120" y="340" width="160" height="36" rx="18" fill="#1f2b25"/>
  <rect x="300" y="340" width="100" height="36" rx="18" fill="#d46a4c"/>
  <rect x="470" y="110" width="360" height="420" rx="24" fill="#fefcf9" stroke="#e3d6c7" stroke-width="2"/>
  <rect x="510" y="155" width="280" height="18" rx="9" fill="#d6c3b3"/>
  <rect x="510" y="190" width="200" height="12" rx="6" fill="#eadfd3"/>
  <rect x="510" y="220" width="240" height="12" rx="6" fill="#eadfd3"/>
  <rect x="510" y="260" width="260" height="140" rx="14" fill="#f3e8dc"/>
  <circle cx="700" cy="220" r="46" fill="#d46a4c"/>
  <circle cx="700" cy="220" r="32" fill="#f4ede4"/>
  <path d="M640 430H780" stroke="#cbb9aa" stroke-width="6" stroke-linecap="round"/>
  <path d="M640 452H740" stroke="#cbb9aa" stroke-width="6" stroke-linecap="round"/>
  <rect x="530" y="490" width="240" height="70" rx="14" fill="#ffffff" stroke="#e6d8c9" stroke-width="2"/>
  <path d="M560 520H720" stroke="#d1c2b3" stroke-width="8" stroke-linecap="round"/>
  <rect x="140" y="430" width="240" height="130" rx="20" fill="#f9f5f0" stroke="#e6d8c9" stroke-width="2"/>
  <path d="M170 470H330" stroke="#d7c7b6" stroke-width="8" stroke-linecap="round"/>
  <path d="M170 500H290" stroke="#e3d6c7" stroke-width="8" stroke-linecap="round"/>
</svg>
